<svg width="385" height="250" viewBox="0 0 385 250" fill="none" xmlns="http://www.w3.org/2000/svg">
<rect width="385" height="250" fill="#F8F9FA"/>
<path fill-rule="evenodd" clip-rule="evenodd" d="M158.582 83.9969C158.555 83.6779 158.466 83.3673 158.319 83.083C158.172 82.7986 157.97 82.546 157.725 82.3396C157.481 82.1332 157.198 81.977 156.893 81.8799C156.587 81.7828 156.266 81.7468 155.947 81.7739L151.089 82.1882C150.446 82.2428 149.85 82.5508 149.433 83.0444C149.016 83.538 148.812 84.1769 148.866 84.8207L149.668 94.2514C149.318 94.496 149.037 94.8284 148.856 95.2154C148.674 95.6024 148.598 96.0304 148.634 96.4564C148.67 96.8824 148.817 97.2914 149.061 97.6424C149.305 97.9934 149.637 98.274 150.024 98.4561L150.877 108.503C150.904 108.823 150.994 109.133 151.141 109.418C151.288 109.703 151.49 109.955 151.735 110.162C151.98 110.368 152.263 110.524 152.569 110.621C152.874 110.718 153.195 110.754 153.515 110.726L158.373 110.312C159.016 110.257 159.611 109.949 160.027 109.455C160.444 108.962 160.647 108.323 160.593 107.68L159.694 97.0862C160.935 96.8636 162.156 96.6524 163.357 96.4525C163.616 100.474 164.357 107.297 165.729 113.722C166.604 117.817 167.803 122.093 169.471 125.456C170.299 127.133 171.377 128.849 172.803 130.205C174.065 131.404 175.769 132.464 177.875 132.742V143.301L177.083 143.016L176.539 142.821C174.09 141.944 171.598 141.051 169.7 140.571C168.776 140.337 167.379 140.033 166.009 140.154C164.84 140.243 163.724 140.681 162.806 141.412C162.179 141.923 161.674 142.568 161.329 143.3C160.984 144.032 160.808 144.832 160.813 145.641C160.813 147.647 161.497 152.807 162.08 156.929C162.439 159.474 162.813 162.016 163.201 164.556L163.279 165.066L163.301 165.2L163.306 165.234V165.246L168.125 164.5L163.309 165.248C163.493 166.432 164.107 167.506 165.032 168.266C165.958 169.026 167.131 169.418 168.328 169.368C169.524 169.319 170.661 168.83 171.52 167.996C172.38 167.162 172.902 166.041 172.988 164.846L173.89 152.23C176.595 153.2 179.759 154.319 182.879 155.196C185.982 156.069 189.387 156.805 192.5 156.805C195.613 156.805 199.018 156.069 202.123 155.196C205.219 154.326 208.351 153.217 211.045 152.254L212.015 164.873C212.107 166.065 212.634 167.18 213.495 168.009C214.357 168.837 215.492 169.321 216.686 169.367C217.88 169.413 219.05 169.019 219.972 168.26C220.895 167.501 221.507 166.429 221.692 165.248L216.875 164.5L221.694 165.246V165.231L221.701 165.197L221.721 165.063L221.799 164.551C222.187 162.012 222.561 159.47 222.92 156.927C223.505 152.805 224.188 147.645 224.188 145.641C224.188 144.203 223.627 142.575 222.196 141.41C221.278 140.678 220.161 140.24 218.991 140.152C217.621 140.03 216.224 140.335 215.303 140.566C213.402 141.049 210.913 141.941 208.463 142.819L207.92 143.014L207.125 143.299V132.752C211.732 132.237 214.523 128.503 216.063 125.532C217.845 122.09 219.01 117.739 219.8 113.622C221.038 107.19 221.528 100.435 221.687 96.4817C222.873 96.6767 224.079 96.8831 225.306 97.1009L224.407 107.677C224.353 108.321 224.557 108.96 224.974 109.454C225.39 109.947 225.986 110.255 226.63 110.31L231.488 110.724C232.132 110.778 232.771 110.574 233.264 110.157C233.758 109.741 234.066 109.145 234.12 108.501L234.976 98.4537C235.364 98.2727 235.697 97.9925 235.942 97.6415C236.187 97.2904 236.335 96.8809 236.371 96.4544C236.407 96.0278 236.33 95.5993 236.148 95.2121C235.965 94.8248 235.684 94.4926 235.332 94.249L236.136 84.8183C236.19 84.1741 235.986 83.5348 235.569 83.0412C235.151 82.5475 234.555 82.2398 233.911 82.1858L229.055 81.7714C228.736 81.7444 228.415 81.7804 228.11 81.8774C227.805 81.9745 227.522 82.1307 227.277 82.3372C227.033 82.5436 226.831 82.7962 226.684 83.0805C226.537 83.3649 226.447 83.6754 226.42 83.9944L225.721 92.2234C224.198 91.9555 222.673 91.6996 221.146 91.4556C220.781 90.7949 220.268 90.2278 219.648 89.7989C219.027 89.37 218.315 89.091 217.568 88.984C216.821 88.877 216.06 88.9448 215.343 89.182C214.627 89.4193 213.976 89.8196 213.441 90.3514C198.628 88.4819 186.087 88.4843 171.535 90.3271C171 89.8034 170.351 89.4101 169.639 89.1776C168.928 88.9451 168.172 88.8798 167.431 88.9865C166.69 89.0933 165.983 89.3694 165.366 89.7934C164.749 90.2173 164.237 90.7778 163.872 91.4312C162.368 91.6701 160.838 91.9285 159.279 92.2064L158.582 83.9969ZM175.262 111.687C174.128 106.201 173.385 100.642 173.039 95.0509C186.521 93.4105 198.257 93.4105 211.978 95.0851C211.888 98.3318 211.471 105.308 210.226 111.782C209.494 115.587 208.544 118.853 207.405 121.049C206.63 122.543 206.101 122.963 205.923 123.063H179.445C179.162 122.768 178.723 122.171 178.207 121.127C177.08 118.853 176.081 115.514 175.262 111.687ZM203.469 107.219C203.469 110.128 202.313 112.918 200.256 114.975C198.199 117.032 195.409 118.188 192.5 118.188C189.591 118.188 186.801 117.032 184.744 114.975C182.687 112.918 181.531 110.128 181.531 107.219C181.531 104.31 182.687 101.52 184.744 99.4628C186.801 97.4058 189.591 96.2502 192.5 96.2502C195.409 96.2502 198.199 97.4058 200.256 99.4628C202.313 101.52 203.469 104.31 203.469 107.219Z" fill="#4FD1C5"/>
</svg>
