<svg width="14" height="14" viewBox="0 0 14 14" fill="none" xmlns="http://www.w3.org/2000/svg">
  <g clip-path="url(#clip0_62_3210)">
    <path d="M2.74219 13.0786H1.89844C1.73061 13.0786 1.56965 13.0119 1.45097 12.8933C1.3323 12.7746 1.26562 12.6136 1.26562 12.4458V8.64893C1.26562 8.48109 1.3323 8.32014 1.45097 8.20146C1.56965 8.08278 1.73061 8.01611 1.89844 8.01611H2.74219C2.91002 8.01611 3.07098 8.08278 3.18965 8.20146C3.30833 8.32014 3.375 8.48109 3.375 8.64893V12.4458C3.375 12.6136 3.30833 12.7746 3.18965 12.8933C3.07098 13.0119 2.91002 13.0786 2.74219 13.0786Z" fill="#4FD1C5"/>
    <path d="M8.64844 13.0776H7.80469C7.63686 13.0776 7.4759 13.011 7.35722 12.8923C7.23855 12.7736 7.17188 12.6127 7.17188 12.4448V6.1167C7.17188 5.94887 7.23855 5.78791 7.35722 5.66923C7.4759 5.55056 7.63686 5.48389 7.80469 5.48389H8.64844C8.81627 5.48389 8.97723 5.55056 9.0959 5.66923C9.21458 5.78791 9.28125 5.94887 9.28125 6.1167V12.4448C9.28125 12.6127 9.21458 12.7736 9.0959 12.8923C8.97723 13.011 8.81627 13.0776 8.64844 13.0776Z" fill="#4FD1C5"/>
    <path d="M11.6016 13.0781H10.7578C10.59 13.0781 10.429 13.0114 10.3103 12.8928C10.1917 12.7741 10.125 12.6131 10.125 12.4453V3.16406C10.125 2.99623 10.1917 2.83527 10.3103 2.7166C10.429 2.59792 10.59 2.53125 10.7578 2.53125H11.6016C11.7694 2.53125 11.9304 2.59792 12.049 2.7166C12.1677 2.83527 12.2344 2.99623 12.2344 3.16406V12.4453C12.2344 12.6131 12.1677 12.7741 12.049 12.8928C11.9304 13.0114 11.7694 13.0781 11.6016 13.0781Z" fill="#4FD1C5"/>
    <path d="M5.69531 13.0781H4.85156C4.68373 13.0781 4.52277 13.0114 4.4041 12.8928C4.28542 12.7741 4.21875 12.6131 4.21875 12.4453V1.05469C4.21875 0.886855 4.28542 0.725897 4.4041 0.607221C4.52277 0.488546 4.68373 0.421875 4.85156 0.421875H5.69531C5.86314 0.421875 6.0241 0.488546 6.14278 0.607221C6.26145 0.725897 6.32812 0.886855 6.32812 1.05469V12.4453C6.32812 12.6131 6.26145 12.7741 6.14278 12.8928C6.0241 13.0114 5.86314 13.0781 5.69531 13.0781Z" fill="#4FD1C5"/>
  </g>
  <defs>
    <clipPath id="clip0_62_3210">
      <rect width="13.5" height="13.5" fill="white"/>
    </clipPath>
  </defs>
</svg>
