<svg width="14" height="14" viewBox="0 0 14 14" fill="none" xmlns="http://www.w3.org/2000/svg">
  <g clip-path="url(#clip0_80_1048)">
    <path d="M7.09527 2.7477C7.05488 2.70906 7.00115 2.6875 6.94526 2.6875C6.88937 2.6875 6.83563 2.70906 6.79525 2.7477L1.80122 7.51847C1.78001 7.53876 1.76313 7.56314 1.75162 7.59014C1.7401 7.61713 1.73418 7.64619 1.73421 7.67554L1.7334 12.1531C1.7334 12.3833 1.82485 12.6041 1.98765 12.7669C2.15044 12.9297 2.37123 13.0211 2.60145 13.0211H5.20833C5.32344 13.0211 5.43384 12.9754 5.51524 12.894C5.59663 12.8126 5.64236 12.7022 5.64236 12.5871V8.89787C5.64236 8.84031 5.66522 8.78511 5.70592 8.74442C5.74662 8.70372 5.80182 8.68085 5.85937 8.68085H8.02951C8.08707 8.68085 8.14227 8.70372 8.18296 8.74442C8.22366 8.78511 8.24653 8.84031 8.24653 8.89787V12.5871C8.24653 12.7022 8.29225 12.8126 8.37365 12.894C8.45505 12.9754 8.56544 13.0211 8.68055 13.0211H11.2863C11.5166 13.0211 11.7374 12.9297 11.9002 12.7669C12.0629 12.6041 12.1544 12.3833 12.1544 12.1531V7.67554C12.1544 7.64619 12.1485 7.61713 12.137 7.59014C12.1255 7.56314 12.1086 7.53876 12.0874 7.51847L7.09527 2.7477Z" fill="#4FD1C5"/>
    <path d="M13.3173 6.62359L11.2883 4.6824V1.73671C11.2883 1.6216 11.2425 1.5112 11.1611 1.4298C11.0797 1.34841 10.9693 1.30268 10.8542 1.30268H9.55214C9.43703 1.30268 9.32664 1.34841 9.24524 1.4298C9.16384 1.5112 9.11812 1.6216 9.11812 1.73671V2.60476L7.54694 1.10248C7.39991 0.95383 7.18127 0.868652 6.94499 0.868652C6.70953 0.868652 6.49144 0.95383 6.34441 1.10276L0.574555 6.62305C0.405826 6.78581 0.384667 7.05355 0.538205 7.22987C0.57676 7.27438 0.623969 7.31057 0.676958 7.33626C0.729946 7.36194 0.787607 7.37657 0.84643 7.37926C0.905252 7.38195 0.964008 7.37264 1.01912 7.3519C1.07423 7.33116 1.12455 7.29943 1.167 7.25863L6.7958 1.87994C6.83618 1.8413 6.88992 1.81974 6.94581 1.81974C7.0017 1.81974 7.05543 1.8413 7.09582 1.87994L12.7252 7.25863C12.8081 7.33815 12.9192 7.38155 13.034 7.37931C13.1489 7.37707 13.2582 7.32938 13.338 7.24669C13.5045 7.07416 13.4907 6.78933 13.3173 6.62359Z" fill="#4FD1C5"/>
  </g>
  <defs>
    <clipPath id="clip0_80_1048">
      <rect width="13.8889" height="13.8889" fill="white"/>
    </clipPath>
  </defs>
</svg>
