<svg width="14" height="14" viewBox="0 0 14 14" fill="none" xmlns="http://www.w3.org/2000/svg">
  <g clip-path="url(#clip0_62_3227)">
    <path d="M12.3809 3.17803C12.3506 3.11894 12.3066 3.06787 12.2528 3.02897C12.1989 2.99006 12.1367 2.96443 12.071 2.95415C12.0054 2.94387 11.9383 2.94924 11.8751 2.96981C11.8119 2.99039 11.7545 3.02559 11.7075 3.07256L10.0875 4.69361C10.008 4.77198 9.90082 4.81592 9.78917 4.81592C9.67752 4.81592 9.57035 4.77198 9.49082 4.69361L8.79051 3.99224C8.75133 3.95307 8.72024 3.90656 8.69904 3.85537C8.67783 3.80418 8.66691 3.74931 8.66691 3.6939C8.66691 3.63849 8.67783 3.58362 8.69904 3.53243C8.72024 3.48124 8.75133 3.43473 8.79051 3.39556L10.4037 1.78215C10.452 1.7338 10.4879 1.67441 10.5082 1.60911C10.5285 1.54382 10.5326 1.47456 10.5202 1.40731C10.5078 1.34006 10.4793 1.27683 10.437 1.22307C10.3947 1.16931 10.34 1.12663 10.2776 1.09871C9.05919 0.553964 7.53833 0.838203 6.57936 1.79006C5.76461 2.599 5.52177 3.86305 5.91359 5.25813C5.93471 5.33253 5.93484 5.41132 5.91394 5.48578C5.89304 5.56024 5.85195 5.62747 5.7952 5.68001L1.40559 9.68914C1.23459 9.84268 1.09665 10.0294 1.0002 10.238C0.903755 10.4466 0.850814 10.6727 0.844611 10.9025C0.838407 11.1322 0.879071 11.3608 0.964123 11.5743C1.04917 11.7878 1.17683 11.9817 1.3393 12.1443C1.50177 12.3068 1.69565 12.4346 1.90912 12.5197C2.12259 12.6048 2.35116 12.6456 2.5809 12.6395C2.81064 12.6334 3.03673 12.5806 3.24537 12.4842C3.45402 12.3879 3.64085 12.25 3.79446 12.0791L7.84657 7.6797C7.89835 7.62368 7.96444 7.58286 8.03771 7.56162C8.11099 7.54039 8.18866 7.53955 8.26238 7.5592C8.65956 7.66802 9.06926 7.72449 9.48107 7.72716C10.3617 7.72716 11.1346 7.44213 11.692 6.8929C12.7242 5.87592 12.8816 4.15097 12.3809 3.17803ZM2.62349 11.7903C2.44984 11.8093 2.27458 11.7739 2.12191 11.689C1.96924 11.6041 1.84668 11.4739 1.77114 11.3164C1.69561 11.1589 1.67083 10.9818 1.70021 10.8096C1.7296 10.6374 1.81171 10.4786 1.93521 10.3551C2.05871 10.2315 2.21751 10.1493 2.3897 10.1199C2.56188 10.0904 2.73897 10.1152 2.8965 10.1906C3.05404 10.2661 3.18427 10.3886 3.26921 10.5413C3.35416 10.6939 3.38963 10.8692 3.37074 11.0428C3.34995 11.2339 3.26455 11.4122 3.12867 11.5481C2.99278 11.684 2.81456 11.7695 2.62349 11.7903Z" fill="#4FD1C5"/>
  </g>
  <defs>
    <clipPath id="clip0_62_3227">
      <rect width="13.5" height="13.5" fill="white"/>
    </clipPath>
  </defs>
</svg>
