<svg width="14" height="14" viewBox="0 0 14 14" fill="none" xmlns="http://www.w3.org/2000/svg">
  <path d="M12.6562 3.37496C12.6562 2.92741 12.4785 2.49819 12.162 2.18172C11.8455 1.86525 11.4163 1.68746 10.9688 1.68746H10.5469V1.27745C10.5469 1.05043 10.3723 0.855577 10.1453 0.844239C10.0883 0.841491 10.0313 0.850352 9.97774 0.870286C9.92422 0.89022 9.87531 0.920812 9.83397 0.960207C9.79263 0.999603 9.75971 1.04698 9.73722 1.09947C9.71473 1.15197 9.70313 1.20848 9.70312 1.26559V1.68746H3.79688V1.27745C3.79688 1.05043 3.62232 0.855577 3.3953 0.844239C3.33826 0.841491 3.28126 0.850352 3.22774 0.870286C3.17422 0.89022 3.12531 0.920812 3.08397 0.960207C3.04263 0.999603 3.00971 1.04698 2.98722 1.09947C2.96473 1.15197 2.95313 1.20848 2.95312 1.26559V1.68746H2.53125C2.0837 1.68746 1.65447 1.86525 1.33801 2.18172C1.02154 2.49819 0.84375 2.92741 0.84375 3.37496V3.69137C0.84375 3.71934 0.854862 3.74617 0.874641 3.76595C0.89442 3.78572 0.921247 3.79684 0.949219 3.79684H12.5508C12.5788 3.79684 12.6056 3.78572 12.6254 3.76595C12.6451 3.74617 12.6562 3.71934 12.6562 3.69137V3.37496ZM0.84375 10.9687C0.84375 11.4163 1.02154 11.8455 1.33801 12.162C1.65447 12.4784 2.0837 12.6562 2.53125 12.6562H10.9688C11.4163 12.6562 11.8455 12.4784 12.162 12.162C12.4785 11.8455 12.6562 11.4163 12.6562 10.9687V4.71969C12.6562 4.69871 12.6479 4.67859 12.6331 4.66375C12.6182 4.64892 12.5981 4.64059 12.5771 4.64059H0.922852C0.901873 4.64059 0.881753 4.64892 0.866918 4.66375C0.852084 4.67859 0.84375 4.69871 0.84375 4.71969V10.9687ZM9.91406 5.48434C10.0392 5.48434 10.1616 5.52145 10.2656 5.59098C10.3697 5.66052 10.4508 5.75935 10.4987 5.87498C10.5466 5.99061 10.5591 6.11785 10.5347 6.2406C10.5103 6.36336 10.45 6.47611 10.3615 6.56461C10.273 6.65311 10.1603 6.71338 10.0375 6.7378C9.91476 6.76222 9.78753 6.74969 9.6719 6.70179C9.55626 6.65389 9.45743 6.57279 9.3879 6.46872C9.31836 6.36465 9.28125 6.24231 9.28125 6.11715C9.28125 5.94932 9.34792 5.78836 9.4666 5.66968C9.58527 5.55101 9.74623 5.48434 9.91406 5.48434ZM9.91406 7.59371C10.0392 7.59371 10.1616 7.63083 10.2656 7.70036C10.3697 7.76989 10.4508 7.86873 10.4987 7.98436C10.5466 8.09999 10.5591 8.22723 10.5347 8.34998C10.5103 8.47273 10.45 8.58549 10.3615 8.67399C10.273 8.76249 10.1603 8.82276 10.0375 8.84718C9.91476 8.87159 9.78753 8.85906 9.6719 8.81117C9.55626 8.76327 9.45743 8.68216 9.3879 8.57809C9.31836 8.47403 9.28125 8.35168 9.28125 8.22652C9.28125 8.05869 9.34792 7.89773 9.4666 7.77906C9.58527 7.66038 9.74623 7.59371 9.91406 7.59371ZM7.80469 5.48434C7.92985 5.48434 8.05219 5.52145 8.15626 5.59098C8.26032 5.66052 8.34143 5.75935 8.38933 5.87498C8.43723 5.99061 8.44976 6.11785 8.42534 6.2406C8.40092 6.36336 8.34065 6.47611 8.25215 6.56461C8.16365 6.65311 8.0509 6.71338 7.92814 6.7378C7.80539 6.76222 7.67815 6.74969 7.56252 6.70179C7.44689 6.65389 7.34806 6.57279 7.27852 6.46872C7.20899 6.36465 7.17188 6.24231 7.17188 6.11715C7.17188 5.94932 7.23855 5.78836 7.35722 5.66968C7.4759 5.55101 7.63686 5.48434 7.80469 5.48434ZM7.80469 7.59371C7.92985 7.59371 8.05219 7.63083 8.15626 7.70036C8.26032 7.76989 8.34143 7.86873 8.38933 7.98436C8.43723 8.09999 8.44976 8.22723 8.42534 8.34998C8.40092 8.47273 8.34065 8.58549 8.25215 8.67399C8.16365 8.76249 8.0509 8.82276 7.92814 8.84718C7.80539 8.87159 7.67815 8.85906 7.56252 8.81117C7.44689 8.76327 7.34806 8.68216 7.27852 8.57809C7.20899 8.47403 7.17188 8.35168 7.17188 8.22652C7.17188 8.05869 7.23855 7.89773 7.35722 7.77906C7.4759 7.66038 7.63686 7.59371 7.80469 7.59371ZM7.80469 9.70309C7.92985 9.70309 8.05219 9.7402 8.15626 9.80973C8.26032 9.87927 8.34143 9.9781 8.38933 10.0937C8.43723 10.2094 8.44976 10.3366 8.42534 10.4594C8.40092 10.5821 8.34065 10.6949 8.25215 10.7834C8.16365 10.8719 8.0509 10.9321 7.92814 10.9566C7.80539 10.981 7.67815 10.9684 7.56252 10.9205C7.44689 10.8726 7.34806 10.7915 7.27852 10.6875C7.20899 10.5834 7.17188 10.4611 7.17188 10.3359C7.17188 10.1681 7.23855 10.0071 7.35722 9.88843C7.4759 9.76976 7.63686 9.70309 7.80469 9.70309ZM5.69531 7.59371C5.82047 7.59371 5.94282 7.63083 6.04688 7.70036C6.15095 7.76989 6.23206 7.86873 6.27995 7.98436C6.32785 8.09999 6.34038 8.22723 6.31597 8.34998C6.29155 8.47273 6.23128 8.58549 6.14278 8.67399C6.05428 8.76249 5.94152 8.82276 5.81877 8.84718C5.69601 8.87159 5.56878 8.85906 5.45315 8.81117C5.33751 8.76327 5.23868 8.68216 5.16915 8.57809C5.09961 8.47403 5.0625 8.35168 5.0625 8.22652C5.0625 8.05869 5.12917 7.89773 5.24785 7.77906C5.36652 7.66038 5.52748 7.59371 5.69531 7.59371ZM5.69531 9.70309C5.82047 9.70309 5.94282 9.7402 6.04688 9.80973C6.15095 9.87927 6.23206 9.9781 6.27995 10.0937C6.32785 10.2094 6.34038 10.3366 6.31597 10.4594C6.29155 10.5821 6.23128 10.6949 6.14278 10.7834C6.05428 10.8719 5.94152 10.9321 5.81877 10.9566C5.69601 10.981 5.56878 10.9684 5.45315 10.9205C5.33751 10.8726 5.23868 10.7915 5.16915 10.6875C5.09961 10.5834 5.0625 10.4611 5.0625 10.3359C5.0625 10.1681 5.12917 10.0071 5.24785 9.88843C5.36652 9.76976 5.52748 9.70309 5.69531 9.70309ZM3.58594 7.59371C3.7111 7.59371 3.83344 7.63083 3.93751 7.70036C4.04157 7.76989 4.12268 7.86873 4.17058 7.98436C4.21848 8.09999 4.23101 8.22723 4.20659 8.34998C4.18217 8.47273 4.1219 8.58549 4.0334 8.67399C3.9449 8.76249 3.83215 8.82276 3.70939 8.84718C3.58664 8.87159 3.4594 8.85906 3.34377 8.81117C3.22814 8.76327 3.12931 8.68216 3.05977 8.57809C2.99024 8.47403 2.95312 8.35168 2.95312 8.22652C2.95312 8.05869 3.0198 7.89773 3.13847 7.77906C3.25715 7.66038 3.41811 7.59371 3.58594 7.59371ZM3.58594 9.70309C3.7111 9.70309 3.83344 9.7402 3.93751 9.80973C4.04157 9.87927 4.12268 9.9781 4.17058 10.0937C4.21848 10.2094 4.23101 10.3366 4.20659 10.4594C4.18217 10.5821 4.1219 10.6949 4.0334 10.7834C3.9449 10.8719 3.83215 10.9321 3.70939 10.9566C3.58664 10.981 3.4594 10.9684 3.34377 10.9205C3.22814 10.8726 3.12931 10.7915 3.05977 10.6875C2.99024 10.5834 2.95312 10.4611 2.95312 10.3359C2.95312 10.1681 3.0198 10.0071 3.13847 9.88843C3.25715 9.76976 3.41811 9.70309 3.58594 9.70309Z" fill="#4FD1C5"/>
</svg>
