<svg width="14" height="14" viewBox="0 0 14 14" fill="none" xmlns="http://www.w3.org/2000/svg">
  <path d="M3.79688 0.855469H6.22266C6.24752 0.855469 6.27148 0.865231 6.28906 0.882812C6.30664 0.900394 6.31641 0.924355 6.31641 0.949219V4.64062C6.31641 4.9794 6.45088 5.3044 6.69043 5.54395C6.92998 5.78349 7.25498 5.91797 7.59375 5.91797H11.2852C11.31 5.91797 11.334 5.92773 11.3516 5.94531C11.3691 5.96289 11.3789 5.98686 11.3789 6.01172V10.9688C11.3789 11.4132 11.202 11.8391 10.8877 12.1533C10.5734 12.4676 10.1476 12.6445 9.70312 12.6445H3.79688C3.35243 12.6445 2.92657 12.4676 2.6123 12.1533C2.29804 11.8391 2.12109 11.4132 2.12109 10.9688V2.53125C2.12109 2.08681 2.29803 1.66095 2.6123 1.34668C2.92657 1.03241 3.35243 0.855469 3.79688 0.855469ZM4.64062 9.26953C4.52563 9.26953 4.4153 9.31517 4.33398 9.39648C4.25267 9.4778 4.20703 9.58813 4.20703 9.70312C4.20703 9.81812 4.25267 9.92845 4.33398 10.0098C4.4153 10.0911 4.52563 10.1367 4.64062 10.1367H8.85938C8.97437 10.1367 9.0847 10.0911 9.16602 10.0098C9.24733 9.92845 9.29297 9.81812 9.29297 9.70312C9.29297 9.58813 9.24733 9.4778 9.16602 9.39648C9.0847 9.31517 8.97437 9.26953 8.85938 9.26953H4.64062ZM4.64062 7.16016C4.52563 7.16016 4.4153 7.20579 4.33398 7.28711C4.25267 7.36842 4.20703 7.47875 4.20703 7.59375C4.20703 7.70875 4.25267 7.81908 4.33398 7.90039C4.4153 7.9817 4.52563 8.02734 4.64062 8.02734H8.85938C8.97437 8.02734 9.0847 7.9817 9.16602 7.90039C9.24733 7.81908 9.29297 7.70875 9.29297 7.59375C9.29297 7.47875 9.24733 7.36842 9.16602 7.28711C9.0847 7.20579 8.97437 7.16016 8.85938 7.16016H4.64062Z" fill="#4FD1C5" stroke="white" stroke-width="0.0234375"/>
  <path d="M7.23242 1.17871C7.24036 1.18028 7.24817 1.18375 7.25391 1.18945L11.0449 4.98145C11.0505 4.98708 11.055 4.99419 11.0566 5.00195C11.0582 5.00989 11.0568 5.01889 11.0537 5.02637C11.0506 5.03366 11.0457 5.0405 11.0391 5.04492C11.0325 5.04929 11.0245 5.05169 11.0166 5.05176H7.59375C7.48505 5.05176 7.38061 5.00845 7.30371 4.93164C7.22687 4.8548 7.18369 4.75026 7.18359 4.6416V1.21875C7.18363 1.2108 7.18607 1.20293 7.19043 1.19629C7.19494 1.18958 7.20151 1.18375 7.20898 1.18066C7.2164 1.17762 7.22456 1.17718 7.23242 1.17871Z" fill="#4FD1C5" stroke="white" stroke-width="0.0234375"/>
</svg>
