<svg width="14" height="14" viewBox="0 0 14 14" fill="none" xmlns="http://www.w3.org/2000/svg">
  <path d="M2.28571 12.4444C2.28571 13.3 2.99286 14 3.85714 14H10.1429C11.0071 14 11.7143 13.3 11.7143 12.4444V4.66667C11.7143 3.81111 11.0071 3.11111 10.1429 3.11111H3.85714C2.99286 3.11111 2.28571 3.81111 2.28571 4.66667V12.4444ZM11.7143 0.777778H9.75L9.19214 0.225556C9.05071 0.0855555 8.84643 0 8.64214 0H5.35786C5.15357 0 4.94929 0.0855555 4.80786 0.225556L4.25 0.777778H2.28571C1.85357 0.777778 1.5 1.12778 1.5 1.55556C1.5 1.98333 1.85357 2.33333 2.28571 2.33333H11.7143C12.1464 2.33333 12.5 1.98333 12.5 1.55556C12.5 1.12778 12.1464 0.777778 11.7143 0.777778Z" fill="white"/>
</svg>
