<svg width="14" height="14" viewBox="0 0 14 14" fill="none" xmlns="http://www.w3.org/2000/svg">
  <g clip-path="url(#clip0_80_3359)">
    <path d="M4.81248 3.49999C4.99361 3.49999 5.15767 3.42649 5.27666 3.3075L6.34373 2.24044V9.40625C6.34373 9.7685 6.63728 10.0625 6.99998 10.0625C7.36267 10.0625 7.65622 9.7685 7.65622 9.40625V2.24044L8.72373 3.3075C8.8423 3.42651 9.00636 3.49999 9.18747 3.49999C9.55016 3.49999 9.84372 3.20599 9.84372 2.84374C9.84372 2.66262 9.77022 2.49855 9.65167 2.37956L7.4642 0.192069C7.34518 0.0734999 7.18112 0 6.99999 0C6.81887 0 6.65481 0.0734999 6.53624 0.192493L4.34875 2.38C4.22973 2.49857 4.15623 2.66264 4.15623 2.84374C4.15623 3.20599 4.44981 3.49999 4.81248 3.49999ZM12.0312 4.375H9.62499C9.2623 4.375 8.96874 4.669 8.96874 5.03125C8.96874 5.3935 9.2623 5.6875 9.62499 5.6875H11.5937V12.6875H2.40625V5.6875H4.375C4.73769 5.6875 5.03125 5.3935 5.03125 5.03125C5.03125 4.669 4.73769 4.375 4.375 4.375H1.96874C1.48619 4.375 1.09375 4.76786 1.09375 5.25V13.125C1.09375 13.6071 1.48619 14 1.96874 14H12.0312C12.5138 14 12.9062 13.6071 12.9062 13.125V5.25C12.9062 4.76786 12.5138 4.375 12.0312 4.375Z" fill="#A0AEC0"/>
  </g>
  <defs>
    <clipPath id="clip0_80_3359">
      <rect width="14" height="14" fill="white"/>
    </clipPath>
  </defs>
</svg>
