<svg width="22" height="22" viewBox="0 0 22 22" fill="none" xmlns="http://www.w3.org/2000/svg">
  <path d="M2.11111 20C1.7963 20 1.53259 19.89 1.32 19.6701C1.10741 19.4502 1.00074 19.1784 1 18.8546V17.7092C1 17.3847 1.10667 17.1129 1.32 16.8937C1.53333 16.6746 1.79704 16.5646 2.11111 16.5639C2.42518 16.5631 2.68926 16.6731 2.90333 16.8937C3.11741 17.1144 3.2237 17.3863 3.22222 17.7092V18.8546C3.22222 19.1791 3.11555 19.4514 2.90222 19.6713C2.68889 19.8912 2.42518 20.0008 2.11111 20ZM6.55555 20C6.24074 20 5.97703 19.89 5.76444 19.6701C5.55185 19.4502 5.44518 19.1784 5.44444 18.8546V12.5551C5.44444 12.2305 5.55111 11.9587 5.76444 11.7396C5.97777 11.5204 6.24148 11.4105 6.55555 11.4097C6.86963 11.4089 7.1337 11.5189 7.34777 11.7396C7.56185 11.9602 7.66814 12.2321 7.66666 12.5551V18.8546C7.66666 19.1791 7.56 19.4514 7.34666 19.6713C7.13333 19.8912 6.86963 20.0008 6.55555 20ZM11 20C10.6852 20 10.4215 19.89 10.2089 19.6701C9.99629 19.4502 9.88962 19.1784 9.88888 18.8546V14.8458C9.88888 14.5213 9.99555 14.2495 10.2089 14.0303C10.4222 13.8112 10.6859 13.7012 11 13.7004C11.3141 13.6997 11.5781 13.8096 11.7922 14.0303C12.0063 14.251 12.1126 14.5228 12.1111 14.8458V18.8546C12.1111 19.1791 12.0044 19.4514 11.7911 19.6713C11.5778 19.8912 11.3141 20.0008 11 20ZM15.4444 20C15.1296 20 14.8659 19.89 14.6533 19.6701C14.4407 19.4502 14.3341 19.1784 14.3333 18.8546V13.1278C14.3333 12.8032 14.44 12.5314 14.6533 12.3122C14.8667 12.0931 15.1304 11.9831 15.4444 11.9824C15.7585 11.9816 16.0226 12.0916 16.2367 12.3122C16.4507 12.5329 16.557 12.8048 16.5555 13.1278V18.8546C16.5555 19.1791 16.4489 19.4514 16.2355 19.6713C16.0222 19.8912 15.7585 20.0008 15.4444 20ZM19.8889 20C19.5741 20 19.3104 19.89 19.0978 19.6701C18.8852 19.4502 18.7785 19.1784 18.7778 18.8546V8.54625C18.7778 8.22173 18.8844 7.9499 19.0978 7.73075C19.3111 7.5116 19.5748 7.40164 19.8889 7.40088C20.2029 7.40012 20.467 7.51007 20.6811 7.73075C20.8952 7.95142 21.0015 8.22326 21 8.54625V18.8546C21 19.1791 20.8933 19.4514 20.68 19.6713C20.4667 19.8912 20.2029 20.0008 19.8889 20ZM13.2222 9.66299C12.9259 9.66299 12.6433 9.60573 12.3744 9.49119C12.1055 9.37665 11.8604 9.21439 11.6389 9.0044L8.77777 6.05507L2.88889 12.1255C2.66667 12.3546 2.40296 12.4646 2.09778 12.4554C1.79259 12.4463 1.52852 12.3268 1.30556 12.0969C1.10185 11.8678 1.00481 11.596 1.01444 11.2814C1.02407 10.9668 1.13037 10.7041 1.33333 10.4934L7.19444 4.45154C7.41666 4.22247 7.66222 4.05562 7.93111 3.95101C8.19999 3.8464 8.48222 3.79371 8.77777 3.79295C9.07333 3.79219 9.36036 3.84487 9.63888 3.95101C9.9174 4.05715 10.1581 4.22399 10.3611 4.45154L13.2222 7.40088L19.1111 1.3304C19.3333 1.10132 19.5974 0.991366 19.9033 1.00053C20.2092 1.00969 20.4729 1.12919 20.6944 1.35903C20.8981 1.58811 20.9955 1.86032 20.9867 2.17568C20.9778 2.49104 20.8711 2.75333 20.6667 2.96255L14.8055 9.0044C14.6018 9.21439 14.3611 9.37665 14.0833 9.49119C13.8055 9.60573 13.5185 9.66299 13.2222 9.66299Z" fill="white"/>
</svg>
