<svg width="22" height="22" viewBox="0 0 22 22" fill="none" xmlns="http://www.w3.org/2000/svg">
  <path d="M4.46875 21.313H3.09375C2.82025 21.313 2.55794 21.2043 2.36455 21.0109C2.17115 20.8175 2.0625 20.5552 2.0625 20.2817V14.0942C2.0625 13.8207 2.17115 13.5584 2.36455 13.365C2.55794 13.1716 2.82025 13.063 3.09375 13.063H4.46875C4.74225 13.063 5.00456 13.1716 5.19795 13.365C5.39135 13.5584 5.5 13.8207 5.5 14.0942V20.2817C5.5 20.5552 5.39135 20.8175 5.19795 21.0109C5.00456 21.2043 4.74225 21.313 4.46875 21.313V21.313Z" fill="white"/>
  <path d="M14.0937 21.312H12.7187C12.4452 21.312 12.1829 21.2034 11.9895 21.01C11.7961 20.8166 11.6875 20.5543 11.6875 20.2808V9.96826C11.6875 9.69476 11.7961 9.43245 11.9895 9.23906C12.1829 9.04566 12.4452 8.93701 12.7187 8.93701H14.0937C14.3673 8.93701 14.6296 9.04566 14.823 9.23906C15.0163 9.43245 15.125 9.69476 15.125 9.96826V20.2808C15.125 20.5543 15.0163 20.8166 14.823 21.01C14.6296 21.2034 14.3673 21.312 14.0937 21.312V21.312Z" fill="white"/>
  <path d="M18.9062 21.3125H17.5312C17.2577 21.3125 16.9954 21.2038 16.802 21.0104C16.6086 20.8171 16.5 20.5547 16.5 20.2812V5.15625C16.5 4.88275 16.6086 4.62044 16.802 4.42705C16.9954 4.23365 17.2577 4.125 17.5312 4.125H18.9062C19.1798 4.125 19.4421 4.23365 19.6355 4.42705C19.8288 4.62044 19.9375 4.88275 19.9375 5.15625V20.2812C19.9375 20.5547 19.8288 20.8171 19.6355 21.0104C19.4421 21.2038 19.1798 21.3125 18.9062 21.3125V21.3125Z" fill="white"/>
  <path d="M9.28125 21.312H7.90625C7.63275 21.312 7.37044 21.2034 7.17705 21.01C6.98365 20.8166 6.875 20.5543 6.875 20.2808V1.71826C6.875 1.44476 6.98365 1.18245 7.17705 0.989058C7.37044 0.795661 7.63275 0.687012 7.90625 0.687012H9.28125C9.55475 0.687012 9.81706 0.795661 10.0105 0.989058C10.2038 1.18245 10.3125 1.44476 10.3125 1.71826V20.2808C10.3125 20.5543 10.2038 20.8166 10.0105 21.01C9.81706 21.2034 9.55475 21.312 9.28125 21.312V21.312Z" fill="white"/>
</svg>
