<svg width="22" height="22" viewBox="0 0 22 22" fill="none" xmlns="http://www.w3.org/2000/svg">
  <path d="M11 1C9.68678 1 8.38642 1.25866 7.17317 1.7612C5.95991 2.26375 4.85752 3.00035 3.92893 3.92893C2.05357 5.8043 1 8.34784 1 11C1 13.6522 2.05357 16.1957 3.92893 18.0711C4.85752 18.9997 5.95991 19.7362 7.17317 20.2388C8.38642 20.7413 9.68678 21 11 21C13.6522 21 16.1957 19.9464 18.0711 18.0711C19.9464 16.1957 21 13.6522 21 11C21 9.68678 20.7413 8.38642 20.2388 7.17317C19.7362 5.95991 18.9997 4.85752 18.0711 3.92893C17.1425 3.00035 16.0401 2.26375 14.8268 1.7612C13.6136 1.25866 12.3132 1 11 1ZM15.2 15.2L10 12V6H11.5V11.2L16 13.9L15.2 15.2Z" fill="white"/>
</svg>
