<svg width="22" height="22" viewBox="0 0 22 22" fill="none" xmlns="http://www.w3.org/2000/svg">
  <path d="M3.86499 14.0219V6.5H2.25651L0 8.12786V9.79934L2.15237 8.25884H2.25651V14.0219H0.00579439V15.5H6V14.0219H3.86499Z" fill="white"/>
  <path d="M7.33496 9.33697V9.37366H8.9491V9.33086C8.9491 8.48711 9.53599 7.91237 10.4104 7.91237C11.2663 7.91237 11.8227 8.41373 11.8227 9.17801C11.8227 9.77108 11.5109 10.2357 10.3064 11.4402L7.43279 14.2833V15.5H13.6508V14.0387H9.79281V13.9286L11.517 12.284C13.0088 10.8533 13.5162 10.0279 13.5162 9.06183C13.5162 7.5333 12.2874 6.5 10.4653 6.5C8.61277 6.5 7.33496 7.64946 7.33496 9.33697Z" fill="white"/>
  <path d="M17.3054 11.5307H18.416C19.488 11.5307 20.1789 12.0284 20.1789 12.8019C20.1789 13.5633 19.5009 14.049 18.4355 14.049C17.4345 14.049 16.7629 13.5813 16.6984 12.8437H15C15.084 14.4627 16.4529 15.5 18.487 15.5C20.5729 15.5 22 14.4507 22 12.9157C22 11.7705 21.2509 11.003 19.9916 10.8651V10.7572C21.012 10.5653 21.6383 9.81578 21.6383 8.79648C21.6383 7.42939 20.3534 6.5 18.4613 6.5C16.4916 6.5 15.2455 7.49534 15.1808 9.12026H16.8146C16.8727 8.35878 17.4862 7.8731 18.4032 7.8731C19.3395 7.8731 19.9336 8.32879 19.9336 9.04831C19.9336 9.77378 19.3266 10.2475 18.3967 10.2475H17.3054V11.5307Z" fill="white"/>
</svg>
