<svg width="22" height="22" viewBox="0 0 22 22" fill="none" xmlns="http://www.w3.org/2000/svg">
  <g clip-path="url(#clip0_80_3757)">
    <path d="M9.9 0V2.277C7.96398 2.52251 6.16448 3.40461 4.78454 4.78454C3.40461 6.16448 2.52251 7.96398 2.277 9.9H0V12.1H2.277C2.52251 14.036 3.40461 15.8355 4.78454 17.2155C6.16448 18.5954 7.96398 19.4775 9.9 19.723V22H12.1V19.723C14.036 19.4775 15.8355 18.5954 17.2155 17.2155C18.5954 15.8355 19.4775 14.036 19.723 12.1H22V9.9H19.723C19.4775 7.96398 18.5954 6.16448 17.2155 4.78454C15.8355 3.40461 14.036 2.52251 12.1 2.277V0M9.9 4.488V6.6H12.1V4.499C14.85 4.95 17.05 7.15 17.512 9.9H15.4V12.1H17.501C17.05 14.85 14.85 17.05 12.1 17.512V15.4H9.9V17.501C7.15 17.05 4.95 14.85 4.488 12.1H6.6V9.9H4.499C4.95 7.15 7.15 4.95 9.9 4.488ZM11 9.9C10.7083 9.9 10.4285 10.0159 10.2222 10.2222C10.0159 10.4285 9.9 10.7083 9.9 11C9.9 11.2917 10.0159 11.5715 10.2222 11.7778C10.4285 11.9841 10.7083 12.1 11 12.1C11.2917 12.1 11.5715 11.9841 11.7778 11.7778C11.9841 11.5715 12.1 11.2917 12.1 11C12.1 10.7083 11.9841 10.4285 11.7778 10.2222C11.5715 10.0159 11.2917 9.9 11 9.9Z" fill="white"/>
  </g>
  <defs>
    <clipPath id="clip0_80_3757">
      <rect width="22" height="22" fill="white"/>
    </clipPath>
  </defs>
</svg>
